<?xml version="1.0" standalone="no"?>
<!DOCTYPE svg PUBLIC "-//W3C//DTD SVG 20010904//EN"
 "http://www.w3.org/TR/2001/REC-SVG-20010904/DTD/svg10.dtd">
<svg version="1.0" xmlns="http://www.w3.org/2000/svg"
 width="1208.000000pt" height="316.000000pt" viewBox="0 0 1208.000000 316.000000"
 preserveAspectRatio="xMidYMid meet">

<g transform="translate(0.000000,316.000000) scale(0.100000,-0.100000)"
fill="#000000" stroke="none">
<path d="M80 1580 l0 -1500 6000 0 6000 0 0 1500 0 1500 -6000 0 -6000 0 0
-1500z m4880 -810 c12 -12 20 -33 20 -55 0 -22 -8 -43 -20 -55 -12 -12 -33
-20 -55 -20 l-35 0 0 75 0 75 35 0 c22 0 43 -8 55 -20z m697 -92 c-2 -24 -4
-7 -4 37 0 44 2 63 4 43 2 -21 2 -57 0 -80z m332 35 c0 -43 -3 -72 -6 -65 -2
6 -9 10 -14 6 -5 -3 -4 6 2 19 8 18 8 30 -1 47 -8 15 -8 20 -1 16 7 -5 11 4
11 23 0 17 2 31 5 31 3 0 5 -35 4 -77z m324 70 c-40 -4 -43 -6 -43 -34 0 -27
3 -29 38 -31 l37 -1 -37 -4 c-34 -4 -37 -7 -41 -41 -2 -20 -4 -2 -5 41 l-2 77
48 -2 47 -1 -42 -4z m461 -9 c5 -13 4 -14 -7 -6 -8 7 -18 8 -22 4 -5 -4 -5 -1
-1 6 10 17 23 15 30 -4z m515 -61 c0 -43 -3 -72 -6 -65 -2 6 -9 10 -14 6 -5
-3 -4 6 2 19 8 18 8 30 -1 47 -8 15 -8 20 -1 16 7 -5 11 4 11 23 0 17 2 31 5
31 3 0 5 -35 4 -77z m-596 37 c8 0 7 -3 -2 -9 -9 -6 -12 -23 -10 -55 2 -25 1
-46 -3 -46 -5 0 -8 23 -8 50 0 33 -4 50 -12 51 -10 0 -10 2 0 6 6 2 13 12 13
21 1 15 2 15 6 0 2 -10 10 -18 16 -18z m217 19 c12 -8 10 -9 -8 -4 -22 7 -52
-9 -52 -26 0 -5 12 -10 28 -10 l27 -2 -27 -4 c-34 -5 -37 -22 -5 -24 l22 -2
-22 -4 c-13 -2 -23 -8 -23 -12 0 -17 30 -33 47 -27 14 6 15 5 6 -5 -16 -16
-63 3 -63 26 0 8 -4 15 -9 15 -11 0 -9 32 4 47 31 38 37 43 48 43 7 0 19 -5
27 -11z m-1839 -29 c10 -6 19 -20 19 -30 0 -16 -7 -20 -35 -20 -23 0 -35 -5
-35 -14 0 -19 30 -29 47 -15 7 7 16 9 19 6 12 -12 -36 -28 -55 -18 -42 23 -31
88 17 100 2 1 12 -4 23 -9z m110 -7 c13 -16 12 -17 -3 -4 -20 15 -52 7 -46
-11 3 -7 15 -15 29 -18 29 -7 38 -44 13 -54 -21 -8 -54 2 -54 16 0 6 6 6 15
-2 16 -13 45 -7 45 10 0 6 -13 16 -30 21 -44 16 -39 55 6 58 6 1 18 -7 25 -16z
m100 7 c10 -6 19 -20 19 -30 0 -16 -7 -20 -35 -20 -37 0 -44 -10 -21 -29 11
-9 20 -10 35 -1 12 6 21 8 21 6 0 -15 -41 -26 -60 -16 -26 14 -28 74 -2 89 21
13 20 13 43 1z m74 0 c8 7 23 9 35 5 17 -5 20 -14 18 -58 l-2 -52 -3 48 c-7
80 -50 76 -64 -5 -6 -41 -7 -40 -7 17 0 33 2 54 5 47 4 -10 8 -10 18 -2z m106
-37 c13 -49 14 -49 39 21 6 16 13 26 16 24 7 -7 -30 -99 -41 -101 -4 -1 -16
22 -26 51 -10 28 -14 52 -10 52 5 0 14 -21 22 -47z m140 37 c27 -15 26 -75 -1
-90 -14 -8 -26 -8 -40 0 -26 14 -28 74 -2 89 21 13 20 13 43 1z m120 -55 l11
-30 18 50 c10 28 19 45 19 39 2 -18 -30 -104 -38 -104 -7 0 -18 29 -37 99 -6
21 13 -16 27 -54z m140 55 c10 -6 19 -20 19 -30 0 -16 -7 -20 -35 -20 -23 0
-35 -5 -35 -14 0 -19 30 -29 47 -15 7 7 16 9 19 6 12 -12 -36 -28 -55 -18 -42
23 -31 88 17 100 2 1 12 -4 23 -9z m71 -10 c-27 -26 -28 -44 -2 -70 11 -11 16
-20 11 -20 -18 0 -41 31 -41 55 0 25 23 55 43 55 6 0 1 -9 -11 -20z m152 4
c28 -28 11 -94 -25 -94 -14 0 -49 39 -49 55 0 16 35 55 49 55 5 0 17 -7 25
-16z m70 5 c4 6 12 11 19 11 6 0 2 -6 -8 -14 -10 -7 -21 -32 -25 -57 -7 -44
-8 -44 -9 16 0 37 3 55 8 46 6 -9 11 -10 15 -2z m254 3 c15 11 15 11 0 -7 -9
-11 -18 -38 -21 -60 -3 -29 -4 -24 -5 20 0 33 2 54 5 47 4 -10 8 -10 21 0z
m93 -2 c27 -15 26 -75 -1 -90 -14 -8 -26 -8 -40 0 -26 14 -28 74 -2 89 21 13
20 13 43 1z m117 2 c8 -1 11 -19 10 -54 l-1 -53 -6 50 c-5 41 -9 50 -26 50
-17 0 -20 -8 -23 -47 -4 -65 -22 -61 -22 5 0 56 1 57 68 49z m156 2 c11 -4 16
-19 16 -43 0 -20 5 -42 12 -49 14 -14 2 -15 -27 -2 -11 5 -14 9 -7 9 19 1 15
68 -5 80 -20 12 -13 14 11 5z m280 -10 c28 -28 20 -44 -24 -44 -41 0 -49 -7
-28 -28 8 -8 8 -12 1 -12 -26 0 -31 61 -6 81 15 13 15 12 4 -8 -11 -22 -10
-23 24 -23 40 0 45 12 13 34 -12 9 -17 16 -11 16 6 0 19 -7 27 -16z m112 -44
c1 -47 1 -48 -3 -10 -2 25 -8 49 -13 54 -16 16 -39 -14 -43 -57 -3 -37 -4 -35
-5 13 l-2 56 33 -1 32 0 1 -55z m66 40 c-27 -26 -28 -44 -2 -70 11 -11 16 -20
11 -20 -18 0 -41 31 -41 55 0 25 23 55 43 55 6 0 1 -9 -11 -20z m-492 6 c0 -3
-4 -8 -10 -11 -5 -3 -10 -1 -10 4 0 6 5 11 10 11 6 0 10 -2 10 -4z m8 -43
c-21 -5 -23 -24 -6 -41 8 -8 8 -12 1 -12 -6 0 -16 7 -23 15 -15 18 3 46 29 44
13 -1 13 -2 -1 -6z m302 -43 c-24 -15 -36 -11 -14 4 10 8 21 12 24 10 2 -3 -2
-9 -10 -14z"/>
<path d="M4884 766 c-3 -7 -4 -35 -2 -62 3 -42 6 -49 25 -52 12 -2 31 6 42 17
27 27 27 65 1 91 -23 23 -58 26 -66 6z"/>
<path d="M5033 733 c-26 -10 -13 -33 17 -33 32 0 37 9 18 28 -13 13 -16 13
-35 5z"/>
<path d="M5242 728 c-19 -19 -14 -28 18 -28 32 0 42 23 14 34 -20 8 -18 8 -32
-6z"/>
<path d="M5562 728 c-30 -30 1 -94 33 -68 25 20 13 80 -15 80 -3 0 -11 -5 -18
-12z"/>
<path d="M5823 733 c-26 -10 -13 -33 17 -33 32 0 37 9 18 28 -13 13 -16 13
-35 5z"/>
<path d="M6043 732 c-22 -14 -20 -67 3 -76 35 -13 60 44 32 72 -14 14 -19 14
-35 4z"/>
<path d="M6462 728 c-30 -30 1 -94 33 -68 25 20 13 80 -15 80 -3 0 -11 -5 -18
-12z"/>
</g>
</svg>
